<svg width="962" height="414" xmlns="http://www.w3.org/2000/svg" xmlns:xlink="http://www.w3.org/1999/xlink" overflow="hidden"><defs><clipPath id="clip0"><path d="M-1 57 961 57 961 471-1 471Z" fill-rule="evenodd" clip-rule="evenodd"/></clipPath><clipPath id="clip1"><path d="M0 257 960 257 960 470 0 470Z" fill-rule="evenodd" clip-rule="evenodd"/></clipPath><clipPath id="clip2"><path d="M0 257 961 257 961 470 0 470Z" fill-rule="evenodd" clip-rule="evenodd"/></clipPath><clipPath id="clip3"><path d="M0 257 961 257 961 470 0 470Z" fill-rule="evenodd" clip-rule="evenodd"/></clipPath></defs><g clip-path="url(#clip0)" transform="translate(1 -57)"><g clip-path="url(#clip1)"><g clip-path="url(#clip2)"><g clip-path="url(#clip3)"><path d="M0 63.9 87.1303 149.1 174.261 42.6 261.391 85.2 348.521 21.3 435.652 42.6 522.848 21.3 609.979 149.1 697.109 191.7 784.239 106.5 871.37 170.4 958.5 85.2 958.5 0 871.37 0 784.239 0 697.109 0 609.979 0 522.848 0 435.652 0 348.521 0 261.391 0 174.261 0 87.1303 0 0 0Z" fill="#F3F4F5" transform="matrix(1.00156 0 -0 1 0 257)"/></g></g></g><rect x="0" y="58" width="960" height="199" fill="#F3F4F5"/></g></svg>